HIERARCHY
ROOT Hips
{
	OFFSET 0.000000 0.000000 0.000000
	CHANNELS 6 Xposition Yposition Zposition Xrotation Yrotation Zrotation
	JOINT LeftUpLeg_virtual
	{
		OFFSET 0.000000 0.000000 0.000000
		CHANNELS 3 Xrotation Yrotation Zrotation
		JOINT LeftUpLeg
		{
			OFFSET 13.026900 -6.336304 -1.092800
			CHANNELS 3 Xrotation Yrotation Zrotation
			JOINT LeftLeg
			{
				OFFSET 0.524474 -46.096886 9.782700
				CHANNELS 3 Xrotation Yrotation Zrotation
				JOINT LeftFoot
				{
					OFFSET -0.524474 -53.427422 -12.948200
					CHANNELS 3 Xrotation Yrotation Zrotation
					JOINT LeftToeBase
					{
						OFFSET 0.192200 -14.009700 16.364100
						CHANNELS 3 Xrotation Yrotation Zrotation
						JOINT LeftToe_End
						{
							OFFSET -1.784700 -0.561700 9.474800
							CHANNELS 3 Xrotation Yrotation Zrotation
							End Site
							{
								OFFSET 0 0 0
							}
						}
					}
				}
			}
		}
	}
	JOINT RightUpLeg_virtual
	{
		OFFSET 0.000000 0.000000 0.000000
		CHANNELS 3 Xrotation Yrotation Zrotation
		JOINT RightUpLeg
		{
			OFFSET -12.883000 -6.336304 -1.092800
			CHANNELS 3 Xrotation Yrotation Zrotation
			JOINT RightLeg
			{
				OFFSET -0.524587 -46.096825 9.782800
				CHANNELS 3 Xrotation Yrotation Zrotation
				JOINT RightFoot
				{
					OFFSET 0.524587 -53.427383 -12.948300
					CHANNELS 3 Xrotation Yrotation Zrotation
					JOINT RightToeBase
					{
						OFFSET -0.192200 -14.009700 16.364100
						CHANNELS 3 Xrotation Yrotation Zrotation
						JOINT RightToe_End
						{
							OFFSET 1.784700 -0.561700 9.474800
							CHANNELS 3 Xrotation Yrotation Zrotation
							End Site
							{
								OFFSET 0 0 0
							}
						}
					}
				}
			}
		}
	}
	JOINT Spine_virtual
	{
		OFFSET 0.000000 0.000000 0.000000
		CHANNELS 3 Xrotation Yrotation Zrotation
		JOINT Spine
		{
			OFFSET 0.072000 7.257294 -0.789700
			CHANNELS 3 Xrotation Yrotation Zrotation
			JOINT Spine1
			{
				OFFSET 0.000000 12.508769 -0.658067
				CHANNELS 3 Xrotation Yrotation Zrotation
				JOINT Spine1_split
				{
					OFFSET 0.000000 12.508769 -0.658067
					CHANNELS 3 Xrotation Yrotation Zrotation
					JOINT Spine2
					{
						OFFSET 0.000000 12.508769 -0.658067
						CHANNELS 3 Xrotation Yrotation Zrotation
						JOINT Neck_virtual
						{
							OFFSET 0.000000 0.000000 0.000000
							CHANNELS 3 Xrotation Yrotation Zrotation
							JOINT Neck
							{
								OFFSET 0.000000 14.033295 7.520400
								CHANNELS 3 Xrotation Yrotation Zrotation
								JOINT Head
								{
									OFFSET 0.000000 8.198502 5.703100
									CHANNELS 3 Xrotation Yrotation Zrotation
									JOINT HeadTop_End
									{
										OFFSET 0.000000 17.760803 13.332701
										CHANNELS 3 Xrotation Yrotation Zrotation
										End Site
										{
											OFFSET 0 0 0
										}
									}
								}
							}
						}
						JOINT LeftShoulder_virtual
						{
							OFFSET 0.000000 0.000000 0.000000
							CHANNELS 3 Xrotation Yrotation Zrotation
							JOINT LeftShoulder
							{
								OFFSET 6.292450 5.785301 -0.669000
								CHANNELS 3 Xrotation Yrotation Zrotation
								JOINT LeftShoulder_split
								{
									OFFSET 6.292450 5.785301 -0.669000
									CHANNELS 3 Xrotation Yrotation Zrotation
									JOINT LeftArm
									{
										OFFSET 13.907140 -6.093903 1.965100
										CHANNELS 3 Xrotation Yrotation Zrotation
										JOINT LeftForeArm
										{
											OFFSET 34.140198 0.000000 0.000000
											CHANNELS 3 Xrotation Yrotation Zrotation
											JOINT LeftHand
											{
												OFFSET 40.960209 0.000000 0.000000
												CHANNELS 3 Xrotation Yrotation Zrotation
												End Site
												{
													OFFSET 0 0 0
												}
											}
										}
									}
								}
							}
						}
						JOINT RightShoulder_virtual
						{
							OFFSET 0.000000 0.000000 0.000000
							CHANNELS 3 Xrotation Yrotation Zrotation
							JOINT RightShoulder
							{
								OFFSET -6.292450 5.785301 -0.669000
								CHANNELS 3 Xrotation Yrotation Zrotation
								JOINT RightShoulder_split
								{
									OFFSET -6.292450 5.785301 -0.669000
									CHANNELS 3 Xrotation Yrotation Zrotation
									JOINT RightArm
									{
										OFFSET -13.907140 -6.093903 1.965100
										CHANNELS 3 Xrotation Yrotation Zrotation
										JOINT RightForeArm
										{
											OFFSET -34.140198 0.000000 0.000000
											CHANNELS 3 Xrotation Yrotation Zrotation
											JOINT RightHand
											{
												OFFSET -40.960209 0.000000 0.000000
												CHANNELS 3 Xrotation Yrotation Zrotation
												End Site
												{
													OFFSET 0 0 0
												}
											}
										}
									}
								}
							}
						}
					}
				}
			}
		}
	}
}
MOTION
Frames: 11
Frame Time: 0.03333333
-0.743995 84.886551 -97.757904 0.000000 0.000000 0.000000 44.307499 -71.430651 34.449521 -67.557859 -15.083131 22.161884 42.503509 -6.760465 8.255526 12.828650 -1.898224 -18.364804 -3.113237 0.727748 0.917966 0.000000 0.000000 0.000000 45.346422 -72.439805 36.510059 -13.601947 4.725915 -29.191887 37.056099 1.707492 -2.126005 0.175361 -30.209244 37.942715 -1.350827 0.013944 -1.684839 0.000000 0.000000 0.000000 40.275303 -67.977130 30.632459 2.426487 11.189174 -3.848663 -2.766812 5.122676 0.317358 0.823891 -3.191262 1.470080 0.000000 0.000000 0.000000 -1.491785 3.112035 0.852166 10.342253 4.704668 -5.796543 4.398520 17.838508 9.536261 0.000000 0.000000 0.000000 -2.400705 3.599044 0.752556 3.175480 3.217385 -12.344725 4.537703 1.254120 1.616126 -51.501091 -30.612375 -49.459770 -4.092162 -77.087427 -1.958728 0.000000 0.000000 0.000000 -2.485955 3.230605 0.815927 -13.741892 -1.592378 -1.325661 -1.889930 -1.540223 -1.313143 -105.705708 35.922434 120.692475 -2.586096 28.157919 2.434662 0.000000 0.000000 0.000000 
0.633515 86.157143 -107.001373 0.000000 0.000000 0.000000 47.556213 -71.999012 37.788653 -66.803587 -12.938003 22.536271 37.158848 -4.969537 7.623406 16.185048 -0.424200 -16.968647 -3.592724 0.625255 0.358426 0.000000 0.000000 0.000000 46.265830 -73.066843 37.934253 -20.137807 2.625199 -25.994467 44.052265 0.506344 -0.625635 -3.418477 -28.511399 35.606763 -0.578770 -0.033321 -1.916031 0.000000 0.000000 0.000000 41.934985 -68.644767 32.462991 2.194789 10.123978 -3.741202 -2.786158 4.478325 0.507513 0.754751 -2.409271 1.264623 0.000000 0.000000 0.000000 -1.376185 2.451204 1.113137 10.610286 5.194299 -5.958956 4.086584 19.017777 8.821933 0.000000 0.000000 0.000000 -2.346360 2.973853 1.001878 3.184005 3.227223 -12.351359 5.522159 1.632182 1.446305 -50.242250 -30.735431 -49.428136 -3.803895 -77.767031 -1.685992 0.000000 0.000000 0.000000 -2.431447 2.548931 1.031237 -13.783535 -1.831745 -1.872384 -1.172911 -1.173917 -1.706769 -105.563982 35.917472 120.779820 -2.812020 28.116221 2.576849 0.000000 0.000000 0.000000 
1.909636 87.569382 -114.976898 0.000000 0.000000 0.000000 49.748803 -72.254495 39.826529 -68.319718 -10.615011 22.197433 35.444915 -3.365977 6.426569 18.339908 0.102740 -14.402082 -4.088281 0.534455 -0.122071 0.000000 0.000000 0.000000 46.943661 -73.324061 38.732401 -25.040565 -0.687444 -22.466176 48.521886 -0.801900 0.834563 -7.286180 -26.987949 33.028005 -0.276701 -0.076075 -1.719084 0.000000 0.000000 0.000000 44.304736 -69.129000 34.298003 1.814371 9.064096 -3.358034 -2.751499 3.688802 0.712926 0.714658 -1.401338 0.923006 0.000000 0.000000 0.000000 -1.314991 1.606793 1.377443 10.789836 5.633079 -6.141289 3.523071 20.301241 8.116826 0.000000 0.000000 0.000000 -2.279603 2.194870 1.250712 3.201145 3.216020 -12.252947 6.166249 2.292993 1.243336 -49.384966 -31.130407 -49.347147 -2.785039 -78.057963 -0.768008 0.000000 0.000000 0.000000 -2.387274 1.739323 1.259543 -13.897902 -2.055981 -2.456400 -0.583119 -0.948816 -2.182877 -106.144541 35.851526 121.403962 -3.121826 26.867662 2.692763 0.000000 0.000000 0.000000 
2.704218 88.937248 -121.061691 0.000000 0.000000 0.000000 50.257912 -71.964342 40.133666 -71.238019 -8.451335 21.084657 36.962911 -2.330886 4.957785 19.069273 -0.112007 -11.510536 -4.109916 0.480473 -0.410231 0.000000 0.000000 0.000000 46.853366 -73.023991 38.578787 -28.041009 -4.455369 -19.457394 50.341414 -2.241408 2.054026 -10.756830 -25.743449 30.613260 -0.394762 -0.115029 -1.207765 0.000000 0.000000 0.000000 46.529810 -69.450251 35.780991 1.377291 8.137812 -2.865980 -2.662565 2.960404 0.870259 0.721950 -0.359007 0.675953 0.000000 0.000000 0.000000 -1.329750 0.804213 1.538672 10.823772 5.939236 -6.318509 2.802153 21.401920 7.646357 0.000000 0.000000 0.000000 -2.217083 1.449615 1.413172 3.228346 3.291158 -12.026246 6.427947 3.201344 1.066221 -49.034276 -31.511385 -49.195845 -1.382994 -78.106355 0.474216 0.000000 0.000000 0.000000 -2.352566 0.994914 1.410955 -14.082813 -2.365972 -2.981965 -0.111313 -0.923010 -2.502990 -107.326970 35.908797 122.650281 -3.386742 25.213510 2.720951 0.000000 0.000000 0.000000 
3.070567 90.239395 -125.144577 0.000000 0.000000 0.000000 49.584957 -71.284205 39.278905 -74.319541 -6.774544 19.250367 40.249239 -2.177253 3.699283 18.864081 -0.948642 -9.594084 -3.938372 0.458712 -0.395877 0.000000 0.000000 0.000000 46.526169 -72.398004 38.143014 -29.547866 -7.757384 -17.385244 50.305433 -3.754133 2.955709 -13.770255 -24.797943 28.197830 -0.262311 -0.150337 -0.678491 0.000000 0.000000 0.000000 48.437851 -69.742290 37.085584 1.018937 7.404522 -2.435943 -2.546718 2.446446 0.947644 0.821461 0.576420 0.720399 0.000000 0.000000 0.000000 -1.428683 0.227913 1.545957 10.703500 6.109882 -6.428500 2.099387 22.116841 7.485914 0.000000 0.000000 0.000000 -2.191774 0.896557 1.454140 3.237944 3.416189 -11.743060 6.383281 4.143754 1.024949 -49.094980 -31.667325 -48.906521 -0.211111 -78.034781 1.470948 0.000000 0.000000 0.000000 -2.334905 0.467705 1.458650 -14.291413 -2.832409 -3.313181 0.223556 -1.038552 -2.544152 -108.613115 36.153906 124.317598 -3.507770 24.030011 2.645965 0.000000 0.000000 0.000000 
2.959016 91.263557 -127.383041 0.000000 0.000000 0.000000 48.181216 -70.278760 37.830686 -76.783313 -5.608950 17.227827 43.691187 -2.542518 2.905855 18.085402 -1.836894 -8.738918 -3.731737 0.476500 -0.264942 0.000000 0.000000 0.000000 46.677294 -71.533042 38.054604 -30.265528 -10.123712 -16.384488 49.216393 -5.092348 3.524849 -16.010054 -23.999360 26.226984 0.280643 -0.152549 -0.367283 0.000000 0.000000 0.000000 49.304789 -69.968868 37.760714 0.817117 6.913698 -2.167013 -2.447565 2.182231 0.959604 0.890430 1.071607 0.822398 0.000000 0.000000 0.000000 -1.576812 -0.041945 1.436565 10.554591 6.135364 -6.399680 1.560099 22.368731 7.627056 0.000000 0.000000 0.000000 -2.234237 0.600787 1.395689 3.219088 3.519639 -11.446534 6.148809 4.859081 1.101897 -49.332879 -31.543887 -48.483005 0.301409 -77.990037 1.826072 0.000000 0.000000 0.000000 -2.321557 0.216400 1.432536 -14.486020 -3.461316 -3.486155 0.362014 -1.331013 -2.304796 -109.577292 36.532889 125.947227 -3.455384 23.777478 2.487549 0.000000 0.000000 0.000000 
2.511639 92.029083 -128.250107 0.000000 0.000000 0.000000 46.971610 -69.352744 36.739489 -78.444087 -4.905838 15.562960 46.197583 -2.948283 2.657680 17.456546 -2.513995 -8.872169 -3.446447 0.509141 -0.198135 0.000000 0.000000 0.000000 47.004699 -70.466133 38.033932 -30.635714 -11.387064 -16.192941 48.096164 -6.016513 3.767207 -17.352270 -23.371364 24.884109 0.775725 -0.172732 -0.350678 0.000000 0.000000 0.000000 48.420273 -70.084353 37.153972 0.904085 6.576645 -2.106947 -2.386439 2.112897 0.927712 0.857025 0.960134 1.218858 0.000000 0.000000 0.000000 -1.703298 -0.044778 1.302984 10.543147 6.056891 -6.184810 1.253344 22.104630 8.018485 0.000000 0.000000 0.000000 -2.308108 0.541371 1.292330 3.195753 3.636879 -11.195898 5.819125 5.178223 1.241573 -49.584325 -31.276748 -48.055900 0.067469 -77.994408 1.465457 0.000000 0.000000 0.000000 -2.303778 0.215512 1.395220 -14.650177 -4.162696 -3.520081 0.302454 -1.694735 -1.923545 -109.978121 36.866151 127.025809 -3.294961 24.277450 2.282786 0.000000 0.000000 0.000000 
2.005781 92.468163 -128.450790 0.000000 0.000000 0.000000 46.589649 -68.862036 36.432492 -79.407752 -4.720111 14.670138 47.562248 -3.287295 2.748452 17.461363 -2.956151 -9.530295 -3.389150 0.521575 -0.215862 0.000000 0.000000 0.000000 47.094315 -69.608753 37.799291 -30.748432 -11.617302 -16.300323 47.492628 -6.220687 3.685424 -17.855791 -22.755542 24.150308 0.511801 -0.190621 -0.533171 0.000000 0.000000 0.000000 46.671779 -69.954449 35.729717 1.233168 6.352360 -2.127477 -2.389403 2.127297 0.896558 0.926984 0.400249 1.441569 0.000000 0.000000 0.000000 -1.766003 0.106341 1.229540 10.800316 5.943335 -5.809548 1.193245 21.428224 8.518230 0.000000 0.000000 0.000000 -2.373977 0.621102 1.198314 3.176776 3.636574 -10.993528 5.462295 5.117054 1.326276 -49.820776 -30.964191 -47.717146 -0.788132 -77.950094 0.519032 0.000000 0.000000 0.000000 -2.283563 0.373326 1.410255 -14.754284 -4.813145 -3.495637 0.104322 -1.879182 -1.602459 -109.805113 37.029170 127.281040 -3.107599 24.847822 2.089689 0.000000 0.000000 0.000000 
1.623740 92.503082 -128.448975 0.000000 0.000000 0.000000 46.417149 -68.867937 36.342357 -80.137879 -4.931683 14.514521 48.116996 -3.357855 3.025952 17.969441 -3.015051 -9.839552 -3.387990 0.519352 -0.387385 0.000000 0.000000 0.000000 47.015501 -69.174660 37.385645 -30.590911 -11.086239 -16.219135 47.262416 -5.938110 3.418800 -17.911145 -22.112225 23.626050 -0.250582 -0.183674 -0.624622 0.000000 0.000000 0.000000 44.504819 -69.594423 33.669896 1.634011 6.252038 -2.079424 -2.476420 2.149265 0.902804 1.135860 -0.327702 1.303922 0.000000 0.000000 0.000000 -1.756834 0.278665 1.241580 11.350104 5.880629 -5.357337 1.308450 20.555835 8.978180 0.000000 0.000000 0.000000 -2.431149 0.725008 1.149616 3.173089 3.517061 -10.836735 5.280622 4.935569 1.305992 -50.038249 -30.669168 -47.527045 -1.839390 -77.823203 -0.592974 0.000000 0.000000 0.000000 -2.278634 0.571809 1.485322 -14.799965 -5.364409 -3.529901 -0.189992 -1.937307 -1.401625 -109.389523 36.985177 126.844782 -2.973045 25.039518 1.991642 0.000000 0.000000 0.000000 
1.547118 92.477158 -128.098389 0.000000 0.000000 0.000000 45.611727 -69.341665 35.594636 -80.792136 -5.568694 14.736321 48.593815 -3.354614 3.569664 19.069994 -2.888891 -9.996436 -3.168102 0.499114 -0.705915 0.000000 0.000000 0.000000 46.987299 -69.424433 36.994374 -30.131605 -10.113968 -15.622620 46.846850 -5.639005 3.091877 -18.168237 -21.499569 22.776471 -0.448488 -0.160184 -0.429006 0.000000 0.000000 0.000000 43.460886 -69.436857 32.319950 1.923094 6.289990 -1.862573 -2.611008 2.186935 0.925709 1.519662 -1.111138 1.133991 0.000000 0.000000 0.000000 -1.719158 0.387055 1.293616 12.081783 5.976549 -4.918896 1.538234 19.801726 9.202287 0.000000 0.000000 0.000000 -2.502097 0.783170 1.136483 3.171903 3.302028 -10.749549 5.261748 4.819531 1.276286 -50.246731 -30.392511 -47.490398 -2.668559 -77.483811 -1.458091 0.000000 0.000000 0.000000 -2.353139 0.707808 1.570134 -14.796331 -5.829464 -3.607913 -0.456353 -1.870036 -1.302294 -109.052016 36.854256 126.255214 -2.930200 24.907666 2.028880 0.000000 0.000000 0.000000 
1.848673 92.554108 -127.399673 0.000000 0.000000 0.000000 44.040237 -69.916917 33.844001 -81.583365 -6.492053 15.073261 49.296815 -3.565077 4.326299 20.605414 -2.807021 -10.630906 -2.855203 0.496201 -1.098667 0.000000 0.000000 0.000000 46.964411 -70.378652 36.618512 -29.838402 -8.837317 -14.711024 46.349671 -5.434548 2.856972 -18.159120 -20.764940 21.883409 0.069653 -0.077035 0.083442 0.000000 0.000000 0.000000 43.822886 -69.517290 32.007434 1.996801 6.474900 -1.445633 -2.803452 2.248555 0.957582 1.902428 -1.570551 0.848002 0.000000 0.000000 0.000000 -1.701798 0.411650 1.335997 12.851222 6.199592 -4.564100 1.782372 19.416904 9.108482 0.000000 0.000000 0.000000 -2.611926 0.776612 1.129304 3.179344 3.023461 -10.694230 5.254607 4.718151 1.398283 -50.452633 -30.066834 -47.548990 -3.140404 -76.949738 -1.944348 0.000000 0.000000 0.000000 -2.486774 0.726101 1.598142 -14.757742 -6.260534 -3.763240 -0.651647 -1.776109 -1.253267 -109.098455 36.864816 126.076399 -2.973775 24.724197 2.243824 0.000000 0.000000 0.000000 
